<?xml version="1.0" encoding="utf-8"?>
<!-- Generator: Adobe Illustrator 16.0.0, SVG Export Plug-In . SVG Version: 6.00 Build 0)  -->
<!DOCTYPE svg PUBLIC "-//W3C//DTD SVG 1.1//EN" "http://www.w3.org/Graphics/SVG/1.1/DTD/svg11.dtd">
<svg version="1.1" id="Layer_1" xmlns="http://www.w3.org/2000/svg" xmlns:xlink="http://www.w3.org/1999/xlink" x="0px" y="0px"
	 width="226px" height="50px" viewBox="0 0 226 50" enable-background="new 0 0 226 50" xml:space="preserve">
<g>
	<path d="M36.596,35.814v5.508h-9.931l-7.362-14.273h-3.73v8.766h4.078v5.508H2.612v-5.508h4.477V14.229H2.612V8.721h19.664
		c3.703,0,6.371,0.934,8.004,2.801s2.449,3.98,2.449,6.34c0,3.703-1.883,6.406-5.648,8.109l5.297,9.844H36.596z M15.573,21.846
		h2.906c3.594,0,5.391-1.281,5.391-3.844c0-1.266-0.41-2.211-1.23-2.836s-1.949-0.938-3.387-0.938h-3.68V21.846z"/>
	<path d="M109.627,41.322v-5.508h4.945V14.229h-4.945V8.721h15.445c3.25,0,5.867,0.199,7.852,0.598s3.883,1.281,5.695,2.648
		s3.266,3.199,4.359,5.496s1.641,4.844,1.641,7.641c0,2.266-0.383,4.426-1.148,6.48s-1.715,3.711-2.848,4.969s-2.488,2.258-4.066,3
		s-3.027,1.223-4.348,1.441s-3.363,0.328-6.129,0.328H109.627z M123.033,35.814h2.039c2.469,0,4.426-0.32,5.871-0.961
		s2.605-1.77,3.48-3.387s1.312-3.73,1.312-6.34c0-2.484-0.441-4.594-1.324-6.328s-2.078-2.93-3.586-3.586s-3.426-0.984-5.754-0.984
		h-2.039V35.814z"/>
	<path d="M148.58,41.322v-5.508h3.914V14.229h-3.914V8.721h28.734v10.336h-6.234v-4.828h-10.102v7.523h8.156v5.508h-8.156v8.555
		h10.102v-4.875h6.234v10.383H148.58z"/>
	<path d="M214.088,35.814v5.508h-9.931l-7.362-14.273h-3.73v8.766h4.078v5.508h-17.039v-5.508h4.477V14.229h-4.477V8.721h19.664
		c3.703,0,6.371,0.934,8.004,2.801s2.449,3.98,2.449,6.34c0,3.703-1.883,6.406-5.648,8.109l5.297,9.844H214.088z M193.064,21.846
		h2.906c3.594,0,5.391-1.281,5.391-3.844c0-1.266-0.41-2.211-1.23-2.836s-1.949-0.938-3.387-0.938h-3.68V21.846z"/>
</g>
<rect x="42.399" y="8.814" width="60.5" height="5"/>
<rect x="42.399" y="22.897" width="50" height="5"/>
<rect x="42.399" y="36.23" width="60.5" height="5.166"/>
</svg>
